<svg xmlns="http://www.w3.org/2000/svg" width="34" height="34" viewBox="0 0 34 34">
    <defs>
        <clipPath id="b5s293g46a">
            <path data-name="사각형 595" style="fill:#fff" d="M0 0h17v11.141H0z"/>
        </clipPath>
    </defs>
    <g data-name="그룹 3451" transform="translate(-867 1372)">
        <circle data-name="타원 72" cx="17" cy="17" r="17" transform="translate(867 -1372)" style="fill:#f19a42"/>
        <g data-name="그룹 3444">
            <g data-name="그룹 3274" transform="translate(876 -1361)" style="clip-path:url(#b5s293g46a)">
                <path data-name="패스 3152" d="M7.528 11.141a5.785 5.785 0 0 1-2.8-.671A5.629 5.629 0 0 1 2.1 7.182C1.943 6.736.708 2.811 5.2.922a5.427 5.427 0 0 1 5.12.253 4.451 4.451 0 0 0 2.584.629c3.27-.374 4.24-1.568 4.248-1.58a.554.554 0 0 1 1 .322 10.855 10.855 0 0 1-7.352 9.983 10.114 10.114 0 0 1-3.273.612m-4.36-4.259A4.571 4.571 0 0 0 5.266 9.5c1.324.713 3.066.705 5.175-.022a9.453 9.453 0 0 0 6.5-7.715A10.165 10.165 0 0 1 13.032 2.9a5.473 5.473 0 0 1-3.184-.728 4.34 4.34 0 0 0-4.216-.233C1.9 3.51 3.092 6.679 3.145 6.813a.64.64 0 0 1 .022.068" transform="translate(-1.153)" style="fill:#fff"/>
                <path data-name="패스 3153" d="M1.131 21.261a.553.553 0 0 1-.461-.247c-.584-.881-1.277-2.9.28-4.22a.554.554 0 0 1 .717.844c-1.2 1.016-.12 2.694-.073 2.765a.554.554 0 0 1-.463.858" transform="translate(0 -10.51)" style="fill:#fff"/>
                <path data-name="패스 3154" d="M2.607 14.325a.554.554 0 0 1-.387-.95c.117-.114 2.914-2.791 6.164-1.752a.554.554 0 1 1-.338 1.055c-2.608-.836-5.03 1.467-5.054 1.49a.552.552 0 0 1-.385.156" transform="translate(-1.295 -7.181)" style="fill:#fff"/>
            </g>
        </g>
    </g>
</svg>
