<svg xmlns="http://www.w3.org/2000/svg" width="34" height="34" viewBox="0 0 34 34">
    <g data-name="그룹 3504" transform="translate(-514 -83)">
        <circle data-name="타원 71" cx="17" cy="17" r="17" transform="translate(514 83)" style="fill:#f19a42"/>
        <path data-name="패스 3344" d="M2378.88 564.814a1.962 1.962 0 0 0-1.544.754l-3.244-1.778a3.817 3.817 0 0 0-2.845-5.877v-4.37a1.966 1.966 0 1 0-.722 0v4.37a3.817 3.817 0 0 0-2.845 5.877l-3.244 1.778a1.95 1.95 0 1 0 .336.64l3.365-1.844a3.811 3.811 0 0 0 5.5 0l3.365 1.844a1.965 1.965 0 1 0 1.88-1.394zm-15.99 3.208a1.243 1.243 0 1 1 1.243-1.243 1.244 1.244 0 0 1-1.242 1.244zm6.752-16.41a1.243 1.243 0 1 1 1.243 1.243 1.244 1.244 0 0 1-1.242-1.243zm1.243 13.2a3.1 3.1 0 1 1 3.1-3.1 3.1 3.1 0 0 1-3.1 3.102zm7.995 3.208a1.243 1.243 0 1 1 1.243-1.243 1.245 1.245 0 0 1-1.243 1.246z" transform="translate(-1839.925 -459.647)" style="fill:#fff"/>
    </g>
</svg>
