<svg xmlns="http://www.w3.org/2000/svg" width="120" height="120" viewBox="0 0 120 120">
    <g data-name="그룹 3463">
        <path data-name="패스 3178" d="M115.81 120a60 60 0 1 1 60-60 60.063 60.063 0 0 1-60 60m0-112a52 52 0 1 0 52 52 52.06 52.06 0 0 0-52-52" transform="translate(-55.81)" style="fill:#fff"/>
        <path data-name="패스 3179" d="M63.562 29.045a4 4 0 0 1-2.832-6.832C75.618 7.341 90.626 8.2 100.578 11.5a49.739 49.739 0 0 1 17.816 10.712 4 4 0 0 1-5.656 5.664c-.952-.944-23.536-22.816-46.344 0a4.018 4.018 0 0 1-2.832 1.168" transform="translate(-29.561 66.507)" style="fill:#fff"/>
        <path data-name="패스 3180" d="M81.2 22.174a3.962 3.962 0 0 1-1.736-.4l-18.88-9.1a4 4 0 0 1 3.472-7.208l18.888 9.112a4 4 0 0 1-1.744 7.6" transform="translate(-38.225 35.427)" style="fill:#fff"/>
        <path data-name="패스 3181" d="M68.944 22.174a4 4 0 0 1-1.744-7.6l18.888-9.112a4 4 0 0 1 3.472 7.208l-18.88 9.1a3.961 3.961 0 0 1-1.736.4" transform="translate(8.089 35.427)" style="fill:#fff"/>
    </g>
</svg>
