<svg xmlns="http://www.w3.org/2000/svg" width="34" height="34" viewBox="0 0 34 34">
    <g data-name="그룹 3452" transform="translate(-810 1372)">
        <circle data-name="타원 73" cx="17" cy="17" r="17" transform="translate(810 -1372)" style="fill:#f19a42"/>
        <g data-name="그룹 3442">
            <g data-name="그룹 3287">
                <path data-name="패스 3133" d="M42.274 124.721a.485.485 0 1 0 .485.485.485.485 0 0 0-.485-.485" transform="translate(780.226 -1474.754)" style="fill:#fff"/>
                <path data-name="패스 3163" d="M42.274 124.721a.485.485 0 1 0 .485.485.485.485 0 0 0-.485-.485" transform="translate(775.226 -1476.754)" style="fill:#fff"/>
                <path data-name="패스 3164" d="M42.274 124.721a.485.485 0 1 0 .485.485.485.485 0 0 0-.485-.485" transform="translate(777.226 -1471.922)" style="fill:#fff"/>
                <path data-name="패스 3134" d="M86.467 94.891a.485.485 0 1 0-.485.485.485.485 0 0 0 .485-.485" transform="translate(741.763 -1448.077)" style="fill:#fff"/>
                <path data-name="패스 3135" d="M119.415 73.447a.485.485 0 1 0-.485-.485.485.485 0 0 0 .485.485" transform="translate(712.342 -1428.779)" style="fill:#fff"/>
                <path data-name="패스 3136" d="M119.506 28.232a.485.485 0 1 0-.485-.485.485.485 0 0 0 .485.485" transform="translate(712.262 -1388.99)" style="fill:#fff"/>
                <path data-name="패스 3137" d="M148.137 64.338a.485.485 0 1 0-.485.485.485.485 0 0 0 .485-.485" transform="translate(687.494 -1421.19)" style="fill:#fff"/>
                <path data-name="패스 3138" d="M69.427 152.363a.485.485 0 1 0 .485.485.485.485 0 0 0-.485-.485" transform="translate(756.331 -1499.079)" style="fill:#fff"/>
                <path data-name="패스 3165" d="M69.427 152.363a.485.485 0 1 0 .485.485.485.485 0 0 0-.485-.485" transform="translate(758.087 -1495.079)" style="fill:#fff"/>
                <path data-name="패스 3139" d="M10.1 9.358a4.22 4.22 0 0 0 .894-2.034h2.1a.525.525 0 0 0 0-1.049h-2.075a4.223 4.223 0 0 0-.831-2.122l1.432-1.432a.525.525 0 0 0-.742-.742L9.458 3.4a4.221 4.221 0 0 0-2.134-.907V.507a.525.525 0 0 0-1.05 0v1.984A4.221 4.221 0 0 0 4.14 3.4L2.721 1.979a.525.525 0 0 0-.742.742L3.41 4.152a4.218 4.218 0 0 0-.831 2.122H.507a.525.525 0 0 0 0 1.049H2.6a4.223 4.223 0 0 0 .9 2.035l-1.519 1.52a.525.525 0 0 0 .742.742l1.531-1.531a4.22 4.22 0 0 0 2.022.819v2.184a.525.525 0 0 0 1.05 0v-2.185a4.219 4.219 0 0 0 2.022-.819l1.531 1.531a.525.525 0 0 0 .742-.742L10.1 9.358m-3.3.533A3.192 3.192 0 1 1 9.991 6.7 3.2 3.2 0 0 1 6.8 9.891" transform="translate(815.267 -1365.978)" style="fill:#fff"/>
                <path data-name="패스 3140" d="m95.591 101.968-1.141.207a2.7 2.7 0 0 0-.68-1.1l.684-.988c.312-.45-.424-.875-.733-.428l-.64.924a2.693 2.693 0 0 0-1.289-.29l-.211-1.163c-.1-.537-.916-.309-.818.226l.2 1.089a2.7 2.7 0 0 0-1.1.724l-.977-.677c-.45-.312-.875.424-.429.733l.935.647a2.692 2.692 0 0 0-.249 1.272l-1.215.221c-.537.1-.309.916.226.819l1.159-.211a2.693 2.693 0 0 0 .7 1.045l-.727 1.049c-.312.45.423.875.733.429l.7-1.006a2.7 2.7 0 0 0 1.139.254h.071l.233 1.284c.1.537.916.309.819-.226l-.22-1.211a2.687 2.687 0 0 0 1.044-.66l1.06.734c.45.312.875-.424.428-.733l-1-.69a2.692 2.692 0 0 0 .292-1.226l1.233-.224c.537-.1.309-.916-.226-.818m-3.4 2.892a1.878 1.878 0 1 1 1.512-2.183 1.864 1.864 0 0 1-1.512 2.183" transform="translate(741.899 -1451.961)" style="fill:#fff"/>
            </g>
        </g>
    </g>
</svg>
