<svg xmlns="http://www.w3.org/2000/svg" width="34" height="34" viewBox="0 0 34 34">
    <defs>
        <clipPath id="pcy0toou5a">
            <path data-name="사각형 590" style="fill:#fff" d="M0 0h23.041v16.248H0z"/>
        </clipPath>
    </defs>
    <g data-name="그룹 3458" transform="translate(-1102 1411)">
        <circle data-name="타원 14" cx="17" cy="17" r="17" transform="translate(1102 -1411)" style="fill:#778d98"/>
        <g data-name="그룹 3265">
            <g data-name="그룹 3264" style="clip-path:url(#pcy0toou5a)" transform="translate(1107.508 -1402.124)">
                <path data-name="패스 3125" d="M23.034 8.843a3.313 3.313 0 0 0-.9-2.15c-.121-.126-.28-.219-.395-.346-.267-.3-.167-.627-.191-.988a3.924 3.924 0 0 0-.261-1.18 4.046 4.046 0 0 0-3.458-2.549 3.947 3.947 0 0 0-1.386.155.645.645 0 0 1-.7-.065c-.2-.137-.363-.3-.569-.428a3.8 3.8 0 0 0-2.505-.526 3.672 3.672 0 0 0-.677.155.629.629 0 0 1-.683-.1 5.233 5.233 0 0 0-1.075-.6 3.9 3.9 0 0 0-5.2 3.311 4.141 4.141 0 0 0-.974.083 3.222 3.222 0 0 0-2.327 2.856c-.073.045-.156.1-.183.116a4.054 4.054 0 0 0-.615.478 2.89 2.89 0 0 0 1.665 5 5.189 5.189 0 0 0 .259.619 3.93 3.93 0 0 0 1.114 1.378 3.39 3.39 0 0 0 2.051.684c.582 0 .831.391 1.272.707a4.239 4.239 0 0 0 1.379.649 4.356 4.356 0 0 0 2.9-.244c.366-.167.9-.72 1.29-.726a6.423 6.423 0 0 1 .7.163 3.391 3.391 0 0 0 .92-.01 5.341 5.341 0 0 0 1.4-.545 1.569 1.569 0 0 1 .8-.007 3.433 3.433 0 0 0 .846-.032 3.525 3.525 0 0 0 2.229-1.322c.259-.334.472-1.136.824-1.309a5.943 5.943 0 0 0 1.206-.593 3.3 3.3 0 0 0 1.25-2.542.442.442 0 0 0-.007-.092m-2.041 2.207a7.9 7.9 0 0 0-1.056.442c-.323.25-.367.652-.547 1a2.738 2.738 0 0 1-2.067 1.433c-.448.055-.877-.124-1.312-.086-.462.041-.825.434-1.266.569a3.012 3.012 0 0 1-1.66-.051 1.07 1.07 0 0 0-.969.207 3.7 3.7 0 0 1-2.83.843 3.5 3.5 0 0 1-1.361-.5c-.394-.247-.682-.678-1.1-.87a2.529 2.529 0 0 0-.952-.1 2.6 2.6 0 0 1-1.093-.306 3.771 3.771 0 0 1-1.521-2.145.4.4 0 0 0-.349-.2 2.124 2.124 0 0 1-2.1-2.1 2.338 2.338 0 0 1 1.274-1.977c.16-.094.32-.15.4-.328a4.4 4.4 0 0 0 .117-.748 2.448 2.448 0 0 1 .318-.733A2.414 2.414 0 0 1 4.2 4.427 8.133 8.133 0 0 1 5.515 4.3a.407.407 0 0 0 .3-.39 3.1 3.1 0 0 1 4.726-2.638 5.132 5.132 0 0 0 .759.528c.364.141.657-.025 1-.131a3.014 3.014 0 0 1 2.467.321c.621.388.906.883 1.7.637A3.232 3.232 0 0 1 20.419 4.2a3.146 3.146 0 0 1 .33 1.371 1.72 1.72 0 0 0 .173 1.109c.232.319.61.5.847.824a2.525 2.525 0 0 1 .462 1.427 2.464 2.464 0 0 1-1.24 2.115" style="fill:#fff"/>
                <path data-name="패스 3126" d="M95.229 96.188a.212.212 0 0 1 .009.037.207.207 0 0 0-.01-.04" transform="translate(-85.206 -86.064)" style="fill:#fff"/>
                <path data-name="패스 3127" d="M93.936 92.559" transform="translate(-84.049 -82.818)" style="fill:#fff"/>
                <path data-name="패스 3128" d="M93.613 92" transform="translate(-83.76 -82.316)" style="fill:#fff"/>
                <path data-name="패스 3129" d="M95.288 57.346a.212.212 0 0 1-.011.04.207.207 0 0 0 .011-.04" transform="translate(-85.249 -51.31)" style="fill:#fff"/>
                <path data-name="패스 3130" d="M65.466 54.172v-.007a.207.207 0 0 0-.024-.027.2.2 0 0 0-.03-.022.193.193 0 0 0-.038-.017.2.2 0 0 1 .037.017.192.192 0 0 0-.037-.017l-.071-.023-.042-.012-.043-.012-.068-.016-.029-.007-.083-.016L65 54l-.088-.013-.034-.005-.081-.008-.054-.005h-.054a3.833 3.833 0 0 0-.249-.009 2.356 2.356 0 0 0-2.456 2.469 2.21 2.21 0 0 0 2.332 2.384h.248l.084-.005.079-.008.072-.008.073-.01.066-.01.062-.02.06-.012.059-.013.052-.012.058-.015.038-.011.084-.026a.2.2 0 0 0 .038-.017h.006a.2.2 0 0 0 .026-.019.207.207 0 0 0 .023-.025v-.007a.2.2 0 0 0 .017-.027.2.2 0 0 0 .011-.03v-.007a.213.213 0 0 0 .006-.035.194.194 0 0 0 0-.036.214.214 0 0 0-.009-.037l-.136-.381a.2.2 0 0 0-.027-.049l-.007-.01a.207.207 0 0 0-.033-.033l-.009-.006-.019-.011-.019-.007H65.148a.2.2 0 0 0-.053.008l-.026.007a2.369 2.369 0 0 1-.638.087 1.421 1.421 0 0 1-1.506-1.584 1.454 1.454 0 0 1 1.532-1.629h.02c.056 0 .109 0 .16.007l.07.008c.033 0 .066.007.1.012l.081.015.068.014q.065.016.127.035h.008a.2.2 0 0 0 .055.009h.011a.185.185 0 0 0 .051-.008h.009a.2.2 0 0 0 .042-.02h.008a.2.2 0 0 0 .038-.035l.007-.01a.192.192 0 0 0 .023-.039v-.009l.151-.4a.2.2 0 0 0-.006-.158.2.2 0 0 0-.016-.026M65.48 54.236" transform="translate(-55.46 -48.281)" style="fill:#fff"/>
                <path data-name="패스 3131" d="M98.626 53.959a2.245 2.245 0 0 0-2.2 2.469 2.176 2.176 0 0 0 2.138 2.391 2.219 2.219 0 0 0 2.2-2.475 2.149 2.149 0 0 0-2.138-2.384m-.032 4.052c-.839 0-1.221-.828-1.221-1.6 0-.821.379-1.648 1.227-1.648s1.221.831 1.221 1.6c0 .817-.38 1.642-1.227 1.642" transform="translate(-86.275 -48.28)" style="fill:#fff"/>
                <path data-name="패스 3132" d="M143.6 74.15a.245.245 0 0 0-.15-.052h-.514a1.864 1.864 0 0 0 .7-1.27.91.91 0 0 0-.979-.942 1.311 1.311 0 0 0-.743.228.247.247 0 0 0-.07.331l.116.191a.246.246 0 0 0 .029.038l.021.021.083.043.03.01a.266.266 0 0 0 .1 0 .286.286 0 0 0 .046-.014l.034-.018.026-.015.015-.008.046-.023a.658.658 0 0 1 .064-.024.52.52 0 0 1 .076-.017.46.46 0 0 1 .049 0 .408.408 0 0 1 .151.023.156.156 0 0 1 .1.1.372.372 0 0 1 .017.121c0 .275-.25.554-.84 1.116l-.255.247a.241.241 0 0 0-.06.094.248.248 0 0 0-.015.083v.18a.247.247 0 0 0 .052.151.251.251 0 0 0 .2.1h1.528a.248.248 0 0 0 .247-.247v-.241a.245.245 0 0 0-.051-.15.252.252 0 0 0-.045-.045" transform="translate(-126.767 -64.32)" style="fill:#fff"/>
            </g>
        </g>
    </g>
</svg>
