<svg xmlns="http://www.w3.org/2000/svg" width="34" height="34" viewBox="0 0 34 34">
    <defs>
        <clipPath id="94t28ju46a">
            <path data-name="사각형 593" style="fill:#fff" d="M0 0h16.511v13.784H0z"/>
        </clipPath>
    </defs>
    <g data-name="그룹 3448" transform="translate(-1045 1372)">
        <circle data-name="타원 69" cx="17" cy="17" r="17" transform="translate(1045 -1372)" style="fill:#f19a42"/>
        <g data-name="그룹 3443">
            <g data-name="그룹 3270" transform="translate(1054 -1362.33)" style="clip-path:url(#94t28ju46a)">
                <path data-name="패스 3143" d="M8.255 17.734C3.626 17.734 0 16.3 0 14.467S3.626 11.2 8.255 11.2s8.255 1.435 8.255 3.266-3.626 3.266-8.255 3.266m0-5.885c-4.484 0-7.608 1.38-7.608 2.619s3.124 2.619 7.608 2.619 7.608-1.38 7.608-2.619-3.124-2.619-7.608-2.619" transform="translate(0 -7.575)" style="fill:#fff"/>
                <path data-name="패스 3144" d="M17.727 13.784c-1.687 0-4.323-1.909-6.6-4.926C8.345 5.161 7.308 1.4 8.769.3s4.791.93 7.578 4.627 3.822 7.456 2.36 8.559a1.589 1.589 0 0 1-.98.3m-6.08-5.316c2.7 3.58 5.68 5.244 6.67 4.5s.211-4.07-2.487-7.654S10.147.072 9.159.816s-.209 4.072 2.488 7.652" transform="translate(-5.483)" style="fill:#fff"/>
                <path data-name="패스 3145" d="M9.749 13.786a1.588 1.588 0 0 1-.98-.3c-1.463-1.1-.426-4.862 2.36-8.559S17.244-.8 18.707.3s.424 4.862-2.36 8.559c-2.274 3.017-4.91 4.926-6.6 4.926M17.712.643c-1.312 0-3.791 1.657-6.066 4.674C8.948 8.9 8.17 12.224 9.159 12.969s3.972-.92 6.67-4.5 3.476-6.906 2.488-7.652a.983.983 0 0 0-.6-.174m-1.629 8.021z" transform="translate(-5.482 -.001)" style="fill:#fff"/>
                <path data-name="패스 3146" d="M24.414 19.238a1.151 1.151 0 1 1-1.152-1.152 1.152 1.152 0 0 1 1.152 1.152" transform="translate(-14.953 -12.231)" style="fill:#fff"/>
                <path data-name="패스 3147" d="M22.585 20.037a1.475 1.475 0 1 1 1.475-1.475 1.477 1.477 0 0 1-1.475 1.475m0-2.3a.828.828 0 1 0 .828.828.829.829 0 0 0-.828-.828" transform="translate(-14.276 -11.555)" style="fill:#fff"/>
            </g>
        </g>
    </g>
</svg>
