<svg xmlns="http://www.w3.org/2000/svg" width="34" height="34" viewBox="0 0 34 34">
    <defs>
        <clipPath id="o0zwjksrea">
            <path data-name="사각형 589" style="fill:#fff" d="M0 0h22.484v11.054H0z"/>
        </clipPath>
    </defs>
    <g data-name="그룹 3450" transform="translate(-928 1372)">
        <circle data-name="타원 67" cx="17" cy="17" r="17" transform="translate(928 -1372)" style="fill:#f19a42"/>
        <g data-name="그룹 3441">
            <g data-name="그룹 3262" transform="translate(934 -1361)" style="clip-path:url(#o0zwjksrea)">
                <path data-name="패스 3123" d="M21.811 3.266a7.614 7.614 0 0 0-3.489-2.68A4.073 4.073 0 0 0 16.08.037 1.428 1.428 0 0 0 15 1.308a.509.509 0 0 0-.011.1c0 1.122-.008 2.245-.013 3.367h-1.31V1.813a.42.42 0 0 0-.839 0v2.963H11.45V.917a.42.42 0 0 0-.84 0v3.859H9.238V.656a.42.42 0 0 0-.84 0v4.12H7.026V1.813a.42.42 0 0 0-.84 0v2.963H4.814V3.008a.42.42 0 0 0-.84 0v1.768h-.618A3.959 3.959 0 0 0 .538.928c-.269-.105-.519.158-.532.4A4.311 4.311 0 0 0 1.66 5.1 4.32 4.32 0 0 0 .007 8.864c.013.247.263.509.532.4a4.028 4.028 0 0 0 2.832-3.648h.6v1.768a.42.42 0 0 0 .84 0V5.616h1.375V8.58a.42.42 0 0 0 .84 0V5.616H8.4v4.12a.42.42 0 0 0 .84 0v-4.12h1.37v3.86a.42.42 0 0 0 .84 0v-3.86h1.373V8.58a.42.42 0 0 0 .839 0V5.616h1.3c0 1.3 0 2.6.018 3.891a1.447 1.447 0 0 0 1.778 1.507A9.381 9.381 0 0 0 20.509 9.2c1.829-1.463 2.661-3.864 1.3-5.939M.863 2a2.938 2.938 0 0 1 1.661 2.631A3.14 3.14 0 0 1 .863 2m0 6.2a3.137 3.137 0 0 1 1.661-2.635A2.934 2.934 0 0 1 .863 8.2m18.314.915c-.613.369-3.169 1.835-3.352.543a9.768 9.768 0 0 1 0-1.33V1.409c.1-1.31 2.791.205 3.352.543a5.457 5.457 0 0 1 2.185 2.225c.96 2.024-.492 3.915-2.185 4.937" transform="translate(0 .001)" style="fill:#fff"/>
                <path data-name="패스 3124" d="m12.489 3.22.6-.6a.421.421 0 0 0-.594-.6l-.6.606-.606-.606a.421.421 0 0 0-.594.6q.3.3.606.6-.3.3-.606.6a.421.421 0 0 0 .594.6l.606-.606.6.606a.421.421 0 0 0 .594-.6l-.6-.6" transform="translate(6.253 1.122)" style="fill:#fff"/>
            </g>
        </g>
    </g>
</svg>
