<svg xmlns="http://www.w3.org/2000/svg" width="34" height="34" viewBox="0 0 34 34">
    <g data-name="그룹 3484">
        <g data-name="타원 76" style="stroke:#1ca5c7;fill:#fff">
            <circle cx="17" cy="17" r="17" style="stroke:none"/>
            <circle cx="17" cy="17" r="16.5" style="fill:none"/>
        </g>
        <g data-name="그룹 3474">
            <path data-name="패스 3118" d="M21.819 156.3c-1.216 0-2.168-.607-2.168-1.381a1.359 1.359 0 0 1 1.009-1.172v-1.153a.8.8 0 0 0-.631-.775 7.159 7.159 0 0 1-1.871-.776.809.809 0 0 0-1 .1l-.815.815a1.356 1.356 0 0 1-.115 1.542c-.549.549-1.651.3-2.509-.556s-1.1-1.962-.556-2.509a1.356 1.356 0 0 1 1.541-.115l.816-.815a.808.808 0 0 0 .1-1 7.19 7.19 0 0 1-.775-1.871.8.8 0 0 0-.775-.63h-1.152a1.356 1.356 0 0 1-1.172 1.009c-.774 0-1.381-.952-1.381-2.167s.607-2.168 1.381-2.168a1.357 1.357 0 0 1 1.172 1.009h1.152a.805.805 0 0 0 .775-.631 7.178 7.178 0 0 1 .776-1.871.809.809 0 0 0-.1-1l-.815-.815a1.357 1.357 0 0 1-1.542-.115c-.548-.548-.3-1.651.556-2.509s1.961-1.1 2.509-.556a1.357 1.357 0 0 1 .115 1.542l.815.815a.809.809 0 0 0 1 .1 7.178 7.178 0 0 1 1.871-.776.805.805 0 0 0 .631-.775v-1.153a1.356 1.356 0 0 1-1.009-1.172c0-.774.952-1.381 2.168-1.381s2.167.607 2.167 1.381a1.357 1.357 0 0 1-1.009 1.172v1.157a.8.8 0 0 0 .63.775 7.16 7.16 0 0 1 1.871.776.807.807 0 0 0 1-.1l.815-.816a1.356 1.356 0 0 1 .116-1.541c.549-.548 1.65-.3 2.509.556s1.1 1.961.556 2.509a1.356 1.356 0 0 1-1.542.115l-.815.815a.809.809 0 0 0-.1 1 7.154 7.154 0 0 1 .776 1.871.8.8 0 0 0 .775.63h1.153a1.359 1.359 0 0 1 1.172-1.009c.774 0 1.381.952 1.381 2.168s-.607 2.167-1.381 2.167A1.359 1.359 0 0 1 30.719 146h-1.153a.8.8 0 0 0-.775.63 7.174 7.174 0 0 1-.776 1.871.809.809 0 0 0 .1 1l.816.815a1.359 1.359 0 0 1 1.541.115c.548.548.3 1.65-.556 2.509s-1.961 1.1-2.509.556a1.355 1.355 0 0 1-.115-1.541l-.816-.816a.809.809 0 0 0-1-.1 7.16 7.16 0 0 1-1.871.776.8.8 0 0 0-.63.775v1.153a1.358 1.358 0 0 1 1.009 1.172c0 .774-.952 1.381-2.167 1.381m-4.105-6.125a1.615 1.615 0 0 1 .824.227 6.4 6.4 0 0 0 1.676.695 1.56 1.56 0 0 1 1.191 1.5v1.421a.373.373 0 0 1-.273.359c-.483.134-.736.375-.736.544 0 .259.555.636 1.423.636s1.422-.377 1.422-.636c0-.169-.253-.411-.736-.544a.373.373 0 0 1-.273-.359v-1.421a1.559 1.559 0 0 1 1.19-1.5 6.389 6.389 0 0 0 1.68-.693 1.565 1.565 0 0 1 1.906.215l1.005 1.005a.372.372 0 0 1 .061.447c-.247.436-.255.785-.136.9.183.183.841.058 1.456-.556s.739-1.273.556-1.456c-.121-.12-.47-.112-.9.135a.373.373 0 0 1-.447-.061l-1.011-.999a1.563 1.563 0 0 1-.215-1.905 6.4 6.4 0 0 0 .695-1.676 1.559 1.559 0 0 1 1.5-1.19h1.422a.373.373 0 0 1 .359.273c.134.483.375.736.544.736.259 0 .636-.554.636-1.422s-.377-1.423-.636-1.423c-.169 0-.411.253-.544.736a.373.373 0 0 1-.359.273h-1.426a1.56 1.56 0 0 1-1.5-1.19 6.386 6.386 0 0 0-.695-1.677 1.563 1.563 0 0 1 .215-1.905l1.005-1.005a.372.372 0 0 1 .447-.061c.436.248.785.254.9.136.183-.183.058-.842-.556-1.456s-1.272-.739-1.456-.556c-.12.12-.112.469.136.9a.372.372 0 0 1-.061.447L27 139.073a1.564 1.564 0 0 1-1.905.216 6.411 6.411 0 0 0-1.677-.7 1.559 1.559 0 0 1-1.19-1.5v-1.421a.372.372 0 0 1 .273-.359c.483-.133.736-.374.736-.544 0-.259-.554-.636-1.422-.636s-1.423.377-1.423.636c0 .169.253.41.736.544a.372.372 0 0 1 .274.359v1.432a1.56 1.56 0 0 1-1.19 1.5 6.415 6.415 0 0 0-1.677.7 1.563 1.563 0 0 1-1.905-.216l-1.005-1.005a.373.373 0 0 1-.061-.447c.247-.436.255-.785.136-.9-.184-.184-.842-.058-1.456.556s-.739 1.272-.556 1.456c.121.12.469.112.9-.136a.372.372 0 0 1 .447.061l1.006 1.005a1.563 1.563 0 0 1 .215 1.905 6.407 6.407 0 0 0-.7 1.677 1.56 1.56 0 0 1-1.5 1.19h-1.407a.373.373 0 0 1-.359-.273c-.133-.483-.374-.736-.544-.736-.259 0-.636.554-.636 1.423s.377 1.422.636 1.422c.17 0 .411-.253.544-.736a.372.372 0 0 1 .359-.273h1.421a1.559 1.559 0 0 1 1.5 1.19 6.416 6.416 0 0 0 .695 1.677 1.563 1.563 0 0 1-.215 1.905l-1.006 1.005a.372.372 0 0 1-.447.061c-.435-.247-.784-.255-.9-.135-.183.183-.058.842.556 1.456s1.273.74 1.456.556c.12-.12.112-.469-.136-.9a.373.373 0 0 1 .061-.447l1.005-1.005a1.523 1.523 0 0 1 1.081-.443" transform="translate(-4.357 -127.391)" style="fill:#1ca5c7;stroke-width:.5px;stroke:#1ca5c7"/>
            <path data-name="패스 3119" d="M27.737 154.641a2.446 2.446 0 1 1 2.446-2.446 2.448 2.448 0 0 1-2.446 2.446m0-4.147a1.7 1.7 0 1 0 1.7 1.7 1.7 1.7 0 0 0-1.7-1.7" transform="translate(-11.87 -135.625)" style="fill:#1ca5c7;stroke-width:.5px;stroke:#1ca5c7"/>
            <path data-name="패스 3120" d="M39.695 154.288a.371.371 0 0 1-.216-.069 2 2 0 0 1-.763-1.071 2.1 2.1 0 0 1 .338-1.749.372.372 0 1 1 .6.442 1.33 1.33 0 0 0-.22 1.1 1.248 1.248 0 0 0 .478.667.372.372 0 0 1-.217.676" transform="translate(-18.592 -136.38)" style="fill:#1ca5c7;stroke-width:.5px;stroke:#1ca5c7"/>
            <path data-name="패스 3121" d="M31.9 163.688a.372.372 0 0 1-.263-.636 2.65 2.65 0 0 1 1.684-.768 2.6 2.6 0 0 1 1.233.243.373.373 0 0 1-.317.674 1.783 1.783 0 0 0-.873-.173 1.9 1.9 0 0 0-1.2.55.37.37 0 0 1-.263.109" transform="translate(-15.007 -141.934)" style="fill:#1ca5c7;stroke-width:.5px;stroke:#1ca5c7"/>
        </g>
    </g>
</svg>
