<svg xmlns="http://www.w3.org/2000/svg" width="34" height="34" viewBox="0 0 34 34">
    <g data-name="그룹 3507" transform="translate(-459 -83)">
        <circle data-name="타원 68" cx="17" cy="17" r="17" transform="translate(459 83)" style="fill:#f19a42"/>
        <g data-name="그룹 3503">
            <path data-name="패스 3339" d="M1545.456 828.806h-14.416a4.108 4.108 0 0 1-4.1-4.1 6.258 6.258 0 0 1 3-5.335v-.026a5.477 5.477 0 0 1 9.975-3.125 3.882 3.882 0 0 1 2.062-.586 3.921 3.921 0 0 1 3.793 4.91 5.116 5.116 0 0 1 3.2 4.751 3.517 3.517 0 0 1-3.514 3.511zm-10.042-14.278a4.82 4.82 0 0 0-4.814 4.814v.2l.008.2-.176.1a5.594 5.594 0 0 0-2.837 4.86 3.444 3.444 0 0 0 3.44 3.44h14.416a2.854 2.854 0 0 0 2.851-2.851 4.455 4.455 0 0 0-3.053-4.234l-.32-.106.112-.318a3.257 3.257 0 0 0-5.028-3.688l-.293.22-.19-.313a4.783 4.783 0 0 0-4.116-2.324z" transform="translate(-1061.938 -721.866)" style="fill:#fff"/>
            <g data-name="그룹 3501">
                <path data-name="패스 3340" d="M1572.821 875.426v1.457h2.223v-1.457a.68.68 0 0 1 .14-.468.473.473 0 0 1 .37-.156.49.49 0 0 1 .376.154.669.669 0 0 1 .144.47v4.006a.67.67 0 0 1-.146.472.489.489 0 0 1-.375.156.469.469 0 0 1-.371-.158.694.694 0 0 1-.139-.47v-1.71h-2.223v1.71a.669.669 0 0 1-.146.472.489.489 0 0 1-.375.156.47.47 0 0 1-.371-.158.694.694 0 0 1-.139-.47v-4.006a.692.692 0 0 1 .137-.468.47.47 0 0 1 .373-.156.49.49 0 0 1 .376.154.669.669 0 0 1 .146.47z" transform="translate(-1101.39 -775.464)" style="fill:#fff"/>
                <path data-name="패스 3341" d="M1615.766 902.459a.533.533 0 0 1 .217.444.909.909 0 0 1-.139.448 5.427 5.427 0 0 1-.465.646l-.476.6.014.014h.874l.455-.021.021.042-.057.391-.568-.021h-1.179l-.192.007-.028-.021v-.3l.7-.81q.291-.355.412-.54a.627.627 0 0 0 .121-.334.292.292 0 0 0-.1-.224.377.377 0 0 0-.266-.089.783.783 0 0 0-.362.1 1.142 1.142 0 0 0-.334.266h-.064l-.078-.377a1.464 1.464 0 0 1 .952-.391.865.865 0 0 1 .542.17z" transform="translate(-1138.729 -799.644)" style="fill:#fff"/>
                <path data-name="패스 3342" d="M1639.707 878.447a1.5 1.5 0 0 1-.238.829 1.578 1.578 0 0 1-.7.576 2.6 2.6 0 0 1-1.085.208 2.443 2.443 0 0 1-1.242-.284 1.654 1.654 0 0 1-.564-.546 1.24 1.24 0 0 1-.217-.664.45.45 0 0 1 .461-.454.392.392 0 0 1 .276.1.82.82 0 0 1 .193.309 2.057 2.057 0 0 0 .21.406.85.85 0 0 0 .317.269 1.175 1.175 0 0 0 .538.106 1.213 1.213 0 0 0 .744-.213.641.641 0 0 0 .286-.532.564.564 0 0 0-.154-.411 1 1 0 0 0-.4-.241q-.245-.083-.654-.177a4.782 4.782 0 0 1-.917-.3 1.479 1.479 0 0 1-.586-.468 1.214 1.214 0 0 1-.217-.737 1.266 1.266 0 0 1 .229-.746 1.444 1.444 0 0 1 .662-.5 2.713 2.713 0 0 1 1.02-.175 2.523 2.523 0 0 1 .81.116 1.716 1.716 0 0 1 .567.309 1.29 1.29 0 0 1 .329.4.931.931 0 0 1 .1.413.487.487 0 0 1-.13.331.415.415 0 0 1-.324.147.373.373 0 0 1-.269-.089 1.189 1.189 0 0 1-.2-.29 1.312 1.312 0 0 0-.333-.449.973.973 0 0 0-.624-.161 1.08 1.08 0 0 0-.643.175.509.509 0 0 0-.245.421.427.427 0 0 0 .083.264.7.7 0 0 0 .229.191 1.535 1.535 0 0 0 .295.125q.149.045.493.132a7.741 7.741 0 0 1 .779.222 2.372 2.372 0 0 1 .593.295 1.213 1.213 0 0 1 .381.439 1.4 1.4 0 0 1 .147.654z" transform="translate(-1157.573 -775.464)" style="fill:#fff"/>
            </g>
        </g>
    </g>
</svg>
