<svg xmlns="http://www.w3.org/2000/svg" width="31" height="31" viewBox="0 0 31 31">
    <g transform="translate(.284)">
        <path data-name="사각형 1561" transform="translate(-.284)" style="fill:none" d="M0 0h31v31H0z"/>
        <circle data-name="타원 14" cx="4.799" cy="4.799" r="4.799" transform="translate(10.559 9.599)" style="stroke-miterlimit:10;stroke:#b1cad6;stroke-width:2px;fill:none"/>
        <path data-name="패스 37" d="M63.8 164.724a8.642 8.642 0 0 1 15.406 0" transform="translate(-56.144 -140.802)" style="stroke-linecap:round;stroke-linejoin:round;stroke:#b1cad6;stroke-width:2px;fill:none"/>
        <path data-name="패스 38" d="M55.05 41.594a11.507 11.507 0 1 1-9.439-9.439" transform="translate(-28.333 -28.156)" style="stroke-linecap:round;stroke-linejoin:round;stroke:#b1cad6;stroke-width:2px;fill:none"/>
        <circle data-name="타원 15" cx="1.92" cy="1.92" r="1.92" transform="translate(22.077 4.799)" style="stroke-linecap:round;stroke-linejoin:round;stroke:#b1cad6;stroke-width:2px;fill:none"/>
        <path data-name="선 25" transform="translate(23.997 3.36)" style="stroke-linecap:round;stroke-linejoin:round;stroke:#b1cad6;stroke-width:2px;fill:none" d="M0 1.44V0"/>
        <path data-name="선 26" transform="translate(21.088 5.039)" style="stroke-linecap:round;stroke-linejoin:round;stroke:#b1cad6;stroke-width:2px;fill:none" d="M1.247.72 0 0"/>
        <path data-name="선 27" transform="translate(21.088 7.679)" style="stroke-linecap:round;stroke-linejoin:round;stroke:#b1cad6;stroke-width:2px;fill:none" d="M1.247 0 0 .72"/>
        <path data-name="선 28" transform="translate(23.997 8.639)" style="stroke-linecap:round;stroke-linejoin:round;stroke:#b1cad6;stroke-width:2px;fill:none" d="M0 0v1.44"/>
        <path data-name="선 29" transform="translate(25.66 7.679)" style="stroke-linecap:round;stroke-linejoin:round;stroke:#b1cad6;stroke-width:2px;fill:none" d="m0 0 1.247.72"/>
        <path data-name="선 30" transform="translate(25.66 5.039)" style="stroke-linecap:round;stroke-linejoin:round;stroke:#b1cad6;stroke-width:2px;fill:none" d="M0 .72 1.247 0"/>
    </g>
</svg>
