<svg xmlns="http://www.w3.org/2000/svg" width="18" height="18" viewBox="0 0 18 18">
    <g data-name="그룹 3238">
        <g data-name="그룹 3239">
            <path data-name="패스 3090" d="M16.138 20.847a4.317 4.317 0 1 1 4.317-4.317 4.322 4.322 0 0 1-4.317 4.317m0-7.493a3.176 3.176 0 1 0 3.176 3.176 3.179 3.179 0 0 0-3.176-3.176" transform="translate(-7.137 -7.373)" style="fill:#fff"/>
            <path data-name="패스 3091" d="M22.238 3.539a.57.57 0 0 1-.571-.571V.571a.571.571 0 0 1 1.141 0v2.4a.57.57 0 0 1-.571.571" transform="translate(-13.237)" style="fill:#fff"/>
            <path data-name="패스 3092" d="M8.613 9.182a.569.569 0 0 1-.4-.167l-1.7-1.7a.571.571 0 1 1 .807-.807l1.7 1.7a.571.571 0 0 1-.4.974" transform="translate(-3.932 -3.932)" style="fill:#fff"/>
            <path data-name="패스 3093" d="M2.969 22.807H.571a.571.571 0 0 1 0-1.141h2.4a.571.571 0 1 1 0 1.141" transform="translate(0 -13.237)" style="fill:#fff"/>
            <path data-name="패스 3094" d="M6.918 35.366a.571.571 0 0 1-.4-.974l1.7-1.7a.571.571 0 0 1 .807.807l-1.7 1.7a.569.569 0 0 1-.4.167" transform="translate(-3.933 -19.78)" style="fill:#fff"/>
            <path data-name="패스 3095" d="M22.237 40.568a.571.571 0 0 1-.571-.568v-2.4a.571.571 0 0 1 1.141 0V40a.571.571 0 0 1-.571.571" transform="translate(-13.237 -22.568)" style="fill:#fff"/>
            <path data-name="패스 3096" d="M34.8 35.366a.569.569 0 0 1-.4-.167L32.7 33.5a.571.571 0 0 1 .8-.8l1.7 1.7a.571.571 0 0 1-.4.974" transform="translate(-19.781 -19.78)" style="fill:#fff"/>
            <path data-name="패스 3097" d="M40 22.808h-2.4a.571.571 0 0 1 0-1.141H40a.571.571 0 1 1 0 1.141" transform="translate(-22.569 -13.237)" style="fill:#fff"/>
            <path data-name="패스 3098" d="M33.1 9.183a.571.571 0 0 1-.4-.974l1.7-1.7a.571.571 0 1 1 .807.807l-1.7 1.7a.569.569 0 0 1-.4.167" transform="translate(-19.781 -3.932)" style="fill:#fff"/>
            <path data-name="패스 3099" d="M18 46.332z" transform="translate(0 -28.332)" style="fill:#fff"/>
        </g>
    </g>
</svg>
