<svg xmlns="http://www.w3.org/2000/svg" width="40" height="40" viewBox="0 0 40 40">
    <path data-name="사각형 1559" style="fill:none" d="M0 0h40v40H0z"/>
    <path data-name="패스 32" d="M34.093 54.723a14.994 14.994 0 1 1 5.246 5.246l-5.181 1.48a1.25 1.25 0 0 1-1.545-1.549l1.48-5.181z" transform="translate(-26.978 -27.067)" style="fill:#7ccad7;opacity:.2"/>
    <path data-name="패스 33" d="M34.093 54.723a14.994 14.994 0 1 1 5.246 5.246h0l-5.181 1.48a1.25 1.25 0 0 1-1.545-1.549l1.48-5.181z" transform="translate(-26.978 -27.067)" style="stroke:#fff;stroke-linecap:round;stroke-linejoin:round;stroke-width:2px;fill:none"/>
    <path data-name="선 23" transform="translate(15.017 17.5)" style="stroke:#fff;stroke-linecap:round;stroke-linejoin:round;stroke-width:2px;fill:none" d="M0 0h10"/>
    <path data-name="선 24" transform="translate(15.017 22.5)" style="stroke:#fff;stroke-linecap:round;stroke-linejoin:round;stroke-width:2px;fill:none" d="M0 0h10"/>
</svg>
