<svg xmlns="http://www.w3.org/2000/svg" width="40" height="40" viewBox="0 0 40 40">
    <path data-name="사각형 1562" style="fill:none" d="M0 0h40v40H0z"/>
    <g data-name="그룹 3087" style="opacity:.2">
        <path data-name="패스 39" d="M36.172 76.616a1.249 1.249 0 0 0-.172.633V92.04a1.25 1.25 0 0 0 .635 1.088l13.125 7.418a1.249 1.249 0 0 0 .615.162l.166-16.064-14.369-8.028z" transform="translate(-30.375 -64.645)" style="fill:#7ccad7"/>
    </g>
    <path data-name="선 31" transform="translate(20 20)" style="stroke:#fff;stroke-linecap:round;stroke-linejoin:round;stroke-width:2px;fill:none" d="M.166 0 0 16.064"/>
    <path data-name="패스 40" d="M64.75 48.649V33.858a1.25 1.25 0 0 0-.635-1.088L50.99 25.351a1.25 1.25 0 0 0-1.23 0L36.635 32.77A1.25 1.25 0 0 0 36 33.858v14.791a1.25 1.25 0 0 0 .635 1.088l13.125 7.419a1.25 1.25 0 0 0 1.23 0l13.125-7.418a1.25 1.25 0 0 0 .635-1.089z" transform="translate(-30.375 -21.254)" style="stroke:#fff;stroke-linecap:round;stroke-linejoin:round;stroke-width:2px;fill:none"/>
    <path data-name="패스 41" d="m65.509 76.618-14.037 8.027L37.1 76.616" transform="translate(-31.306 -64.645)" style="stroke:#fff;stroke-linecap:round;stroke-linejoin:round;stroke-width:2px;fill:none"/>
</svg>
