<svg xmlns="http://www.w3.org/2000/svg" width="40" height="40" viewBox="0 0 40 40">
    <path data-name="사각형 1558" style="fill:none" d="M0 0h40v40H0z"/>
    <path data-name="패스 29" d="M55.25 56h-10a5 5 0 0 0-5 5 5 5 0 0 0-5-5h-10A1.25 1.25 0 0 0 24 57.25v20a1.25 1.25 0 0 0 1.25 1.25h10a5 5 0 0 1 5 5 5 5 0 0 1 5-5h10a1.25 1.25 0 0 0 1.25-1.25v-20A1.25 1.25 0 0 0 55.25 56z" transform="translate(-20.25 -47.25)" style="fill:#7ccad7;opacity:.2"/>
    <path data-name="패스 30" d="M128 61a5 5 0 0 1 5-5h10a1.25 1.25 0 0 1 1.25 1.25v20A1.25 1.25 0 0 1 143 78.5h-10a5 5 0 0 0-5 5" transform="translate(-108 -47.25)" style="stroke:#fff;stroke-linecap:round;stroke-linejoin:round;stroke-width:2px;fill:none"/>
    <path data-name="패스 31" d="M24 77.25a1.25 1.25 0 0 0 1.25 1.25h10a5 5 0 0 1 5 5V61a5 5 0 0 0-5-5h-10A1.25 1.25 0 0 0 24 57.25z" transform="translate(-20.25 -47.25)" style="stroke:#fff;stroke-linecap:round;stroke-linejoin:round;stroke-width:2px;fill:none"/>
</svg>
