<svg xmlns="http://www.w3.org/2000/svg" width="50" height="50" viewBox="0 0 50 50">
    <g data-name="그룹 3472" transform="translate(-53 -306)">
        <rect data-name="사각형 1671" width="50" height="50" rx="15" transform="translate(53 306)" style="fill:#ffe812"/>
        <path data-name="패스 3338" d="M20.32 24.949h1.422l-.707-2.029z" transform="translate(55.184 305.364)" style="fill:#422918"/>
        <path data-name="패스 3337" d="M22.847 13.38c-6.923 0-12.537 4.375-12.537 9.773 0 3.5 2.354 6.558 5.879 8.288-.192.652-1.236 4.212-1.273 4.529 0 0 0 .217.11.29a.379.379 0 0 0 .3 0c.394-.054 4.579-2.953 5.293-3.46a16.292 16.292 0 0 0 2.225.163c6.923 0 12.537-4.375 12.537-9.773s-5.611-9.81-12.534-9.81zm-6.209 12.509a.723.723 0 0 1-1.447 0v-4.248h-1.126a.706.706 0 0 1 0-1.4h3.709a.706.706 0 0 1 0 1.4h-1.136zm6.081.571a1.155 1.155 0 0 1-.458.1.6.6 0 0 1-.6-.317l-.357-.906h-2.212l-.357.906a.6.6 0 0 1-.6.317 1.155 1.155 0 0 1-.458-.1c-.2-.091-.394-.344-.174-1.014l1.731-4.529a1.011 1.011 0 0 1 1.932 0l1.731 4.529c.22.67.027.924-.174 1.014zm3.663 0h-2.326a.674.674 0 0 1-.7-.652v-4.856a.743.743 0 0 1 1.474 0v4.2h1.538a.652.652 0 1 1 0 1.3zM32 25.925a.714.714 0 0 1-.284.471.747.747 0 0 1-.43.145.717.717 0 0 1-.577-.281l-1.694-2.228-.256.254v1.558a.723.723 0 0 1-1.447 0v-4.892a.724.724 0 0 1 1.447 0v1.54l2.015-2a.59.59 0 0 1 .4-.154.718.718 0 0 1 .5.208.748.748 0 0 1 .211.453.531.531 0 0 1-.165.435l-1.648 1.63 1.832 2.328a.7.7 0 0 1 .096.533z" transform="translate(56.009 306.296)" style="fill:#422918"/>
    </g>
</svg>
