<svg xmlns="http://www.w3.org/2000/svg" width="120" height="120" viewBox="0 0 120 120">
    <g data-name="그룹 3462">
        <g data-name="그룹 3342">
            <path data-name="패스 3170" d="M99 120a60 60 0 1 1 60-60 60.063 60.063 0 0 1-60 60M99 8a52 52 0 1 0 52 52A52.06 52.06 0 0 0 99 8" transform="translate(-39)" style="fill:#fff"/>
            <path data-name="패스 3167" d="M18.592 12.921a7.671 7.671 0 1 1-7.671-7.671 7.674 7.674 0 0 1 7.671 7.671" transform="translate(22.914 37.016)" style="fill:#fff"/>
            <path data-name="패스 3168" d="M25.092 12.921a7.671 7.671 0 1 1-7.671-7.671 7.674 7.674 0 0 1 7.671 7.671" transform="translate(68.743 37.016)" style="fill:#fff"/>
        </g>
        <path data-name="패스 3169" d="M37.063 9.5a45.418 45.418 0 0 0-12.9 1.925A54.629 54.629 0 0 0 5 21.7a3.555 3.555 0 0 0 0 5.42 4.691 4.691 0 0 0 6.075.015C12.1 26.231 36.4 5.25 60.932 27.128a4.684 4.684 0 0 0 6.083 0 3.539 3.539 0 0 0 0-5.424C56.579 12.392 46.072 9.5 37.063 9.5" transform="translate(23.986 66.106)" style="fill:#fff"/>
    </g>
</svg>
