<svg xmlns="http://www.w3.org/2000/svg" width="120" height="120" viewBox="0 0 120 120">
    <g data-name="그룹 3460">
        <path data-name="패스 3166" d="M60 120a60 60 0 1 1 60-60 60.063 60.063 0 0 1-60 60M60 8a52 52 0 1 0 52 52A52.06 52.06 0 0 0 60 8" style="fill:#fff"/>
        <path data-name="패스 3167" d="M18.592 12.921a7.671 7.671 0 1 1-7.671-7.671 7.674 7.674 0 0 1 7.671 7.671" transform="translate(22.914 37.016)" style="fill:#fff"/>
        <path data-name="패스 3168" d="M25.092 12.921a7.671 7.671 0 1 1-7.671-7.671 7.674 7.674 0 0 1 7.671 7.671" transform="translate(68.743 37.016)" style="fill:#fff"/>
        <path data-name="패스 3169" d="M37.063 28.25a45.418 45.418 0 0 1-12.9-1.925A54.629 54.629 0 0 1 5 16.045a3.555 3.555 0 0 1 0-5.416 4.691 4.691 0 0 1 6.075-.015c1.024.905 25.323 21.886 49.855.008a4.684 4.684 0 0 1 6.083 0 3.539 3.539 0 0 1 0 5.424c-10.437 9.313-20.944 12.2-29.953 12.2" transform="translate(23.986 67.107)" style="fill:#fff"/>
    </g>
</svg>
