<svg xmlns="http://www.w3.org/2000/svg" width="34" height="34" viewBox="0 0 34 34">
    <defs>
        <clipPath id="pw2hbegtfa">
            <path data-name="사각형 594" style="fill:#fff" d="M0 0h14.626v16.908H0z"/>
        </clipPath>
    </defs>
    <g data-name="그룹 3459" transform="translate(-1157 1411)">
        <circle data-name="타원 13" cx="17" cy="17" r="17" transform="translate(1157 -1411)" style="fill:#778d98"/>
        <g data-name="그룹 3273">
            <g data-name="그룹 3272" style="clip-path:url(#pw2hbegtfa)" transform="translate(1167 -1401.33)">
                <path data-name="패스 3148" d="M10.173 15.2a3.077 3.077 0 0 0-.188-.821l-.006-.017c-.032-.095-.072-.2-.123-.335-.021-.054-.041-.107-.06-.149a12.781 12.781 0 0 0-.575-1.2c-.94-1.752-3.811-5.729-3.933-5.898a.38.38 0 0 0-.308-.157.38.38 0 0 0-.308.158 46.818 46.818 0 0 0-4.21 7.01 4.994 4.994 0 0 0-.274.76l-.035.128-.012.048c-.024.1-.045.2-.065.32a.782.782 0 0 0-.017.093v.038a5.052 5.052 0 0 0-.059.728 5.108 5.108 0 0 0 10.216 0 4.879 4.879 0 0 0-.046-.647.368.368 0 0 0 0-.058m-5.062 5.053A4.353 4.353 0 0 1 .76 15.906a4.415 4.415 0 0 1 .056-.667v-.033c0-.011.008-.037.01-.05.014-.085.031-.169.049-.245l.011-.046.028-.106a4.3 4.3 0 0 1 .241-.666 43.063 43.063 0 0 1 3.828-6.434c.784 1.1 2.831 4 3.567 5.376a12.072 12.072 0 0 1 .55 1.144 5.507 5.507 0 0 1 .166.443.165.165 0 0 0 .006.018 3.448 3.448 0 0 1 .135.514.392.392 0 0 0 0 .116 4.252 4.252 0 0 1 .053.639 4.353 4.353 0 0 1-4.349 4.348" transform="translate(0 -4.107)" style="fill:#fff"/>
                <path data-name="패스 3149" d="M30.348 4.06v-.03a1.583 1.583 0 0 0-.1-.428 3.614 3.614 0 0 0-.05-.136l-.014-.036a1.365 1.365 0 0 0-.026-.063 5.994 5.994 0 0 0-.265-.555c-.421-.794-1.71-2.579-1.764-2.655A.38.38 0 0 0 27.821 0a.379.379 0 0 0-.308.158 21.066 21.066 0 0 0-1.9 3.163 2.435 2.435 0 0 0-.132.364l-.023.087a1.479 1.479 0 0 0-.03.146c0 .015-.011.05-.013.065s0 .018 0 .028a2.411 2.411 0 0 0-.026.34 2.49 2.49 0 0 0 4.98 0 2.281 2.281 0 0 0-.02-.292m-2.47 2.022a1.732 1.732 0 0 1-1.73-1.73 1.792 1.792 0 0 1 .023-.265V4.049c0-.031.011-.061.023-.108l.012-.046a1.784 1.784 0 0 1 .1-.272 17.4 17.4 0 0 1 1.518-2.583c.414.586 1.125 1.612 1.4 2.131a5.374 5.374 0 0 1 .233.486l.03.075c.015.041.03.079.041.113a1.676 1.676 0 0 1 .05.178.369.369 0 0 0 0 .076 1.688 1.688 0 0 1 .022.253 1.732 1.732 0 0 1-1.73 1.73" transform="translate(-15.742)" style="fill:#fff"/>
                <path data-name="패스 3150" d="M18.5 23.366a.38.38 0 0 0-.121.524c.014.022 1.406 2.284.25 3.386a.38.38 0 1 0 .525.55c1.6-1.526-.059-4.225-.13-4.339a.38.38 0 0 0-.524-.12" transform="translate(-11.363 -14.452)" style="fill:#fff"/>
                <path data-name="패스 3151" d="M16.813 35.855a.443.443 0 1 0 .443.443.443.443 0 0 0-.443-.443" transform="translate(-10.15 -22.232)" style="fill:#fff"/>
            </g>
        </g>
    </g>
</svg>
