<svg xmlns="http://www.w3.org/2000/svg" width="34" height="34" viewBox="0 0 34 34">
    <defs>
        <clipPath id="dc1u6snsea">
            <path data-name="사각형 596" style="fill:#fff" d="M0 0h18.878v13.175H0z"/>
        </clipPath>
    </defs>
    <g data-name="그룹 3456" transform="translate(-989 1411)">
        <circle data-name="타원 12" cx="17" cy="17" r="17" transform="translate(989 -1411)" style="fill:#778d98"/>
        <g data-name="그룹 3277">
            <g data-name="그룹 3276" transform="translate(997 -1401)" style="clip-path:url(#dc1u6snsea)">
                <path data-name="패스 3155" d="M7.584 1.769a.508.508 0 1 0-.508-.508.509.509 0 0 0 .508.508" transform="translate(5.865 .626)" style="fill:#fff"/>
                <path data-name="패스 3156" d="M7.272 5.055a.508.508 0 1 0 .508.508.509.509 0 0 0-.508-.508" transform="translate(5.605 4.191)" style="fill:#fff"/>
                <path data-name="패스 3157" d="M3.434 6.153a.508.508 0 1 0-.508-.508.509.509 0 0 0 .508.508" transform="translate(2.425 4.26)" style="fill:#fff"/>
                <path data-name="패스 3158" d="M2.365 3.438a.508.508 0 1 0-.508.508.509.509 0 0 0 .508-.508" transform="translate(1.117 2.429)" style="fill:#fff"/>
                <path data-name="패스 3159" d="M2.649.508A.508.508 0 1 0 3.157 0a.509.509 0 0 0-.508.508" transform="translate(2.196 .001)" style="fill:#fff"/>
                <path data-name="패스 3160" d="M.43 1.886c1.1.033 1.6.946 2.551 1.328a2.937 2.937 0 0 0 2.9-.455c.849-.657 1.739-1.249 2.817-.6.384.232.689.572 1.07.816a2.911 2.911 0 0 0 1.527.432c.572.018.572-.871 0-.889-1.1-.033-1.6-.946-2.551-1.328a2.939 2.939 0 0 0-2.9.455C4.995 2.3 4.1 2.9 3.025 2.244c-.384-.232-.691-.572-1.066-.816A2.927 2.927 0 0 0 .43 1a.445.445 0 0 0 0 .889" transform="translate(0 .824)" style="fill:#fff"/>
                <path data-name="패스 3161" d="M12.609 4.321c.384.232.689.572 1.068.816a2.9 2.9 0 0 0 1.529.432c.572.018.571-.871 0-.889-1.1-.033-1.6-.946-2.553-1.328a2.944 2.944 0 0 0-2.9.455c-.845.657-1.739 1.249-2.817.6-.382-.234-.689-.574-1.066-.818a2.922 2.922 0 0 0-1.529-.432.445.445 0 0 0 0 .889c1.1.035 1.6.946 2.553 1.328a2.937 2.937 0 0 0 2.9-.455c.847-.655 1.739-1.249 2.817-.6" transform="translate(3.244 2.614)" style="fill:#fff"/>
                <path data-name="패스 3162" d="M1.305 6.773c1.1.033 1.6.946 2.553 1.328a2.937 2.937 0 0 0 2.9-.455c.847-.657 1.739-1.249 2.817-.6.384.232.689.572 1.068.816a2.906 2.906 0 0 0 1.529.432.445.445 0 0 0 0-.889c-1.1-.033-1.6-.946-2.553-1.328a2.937 2.937 0 0 0-2.9.455c-.847.657-1.741 1.249-2.817.6-.384-.232-.691-.572-1.068-.816a2.922 2.922 0 0 0-1.529-.432c-.572-.016-.571.872 0 .889" transform="translate(.727 4.874)" style="fill:#fff"/>
            </g>
        </g>
    </g>
</svg>
