<svg xmlns="http://www.w3.org/2000/svg" width="34" height="34" viewBox="0 0 34 34">
    <g data-name="그룹 3486">
        <g data-name="타원 78" style="fill:#fff;stroke:#dedede">
            <circle cx="17" cy="17" r="17" style="stroke:none"/>
            <circle cx="17" cy="17" r="16.5" style="fill:none"/>
        </g>
        <g data-name="그룹 3478">
            <path data-name="패스 3115" d="M23.876 86.774h7.207A1.821 1.821 0 0 0 33 84.78c0-1.992-2.917-1.965-2.917-.4" transform="translate(-14.69 -72.652)" style="stroke:#c2c2c2;stroke-linecap:round;stroke-linejoin:round;stroke-width:1.5px;fill:none"/>
            <path data-name="패스 3116" d="M24.193 103.674h6.662a1.821 1.821 0 0 1 1.915 1.994c0 1.992-2.917 1.965-2.917.4" transform="translate(-14.863 -83.797)" style="stroke:#c2c2c2;stroke-linecap:round;stroke-linejoin:round;stroke-width:1.5px;fill:none"/>
            <path data-name="패스 3117" d="M23.466 97.631h15.085a1.821 1.821 0 0 1 1.915 1.994c0 1.992-2.917 1.965-2.917.4" transform="translate(-14.466 -80.5)" style="stroke:#c2c2c2;stroke-linecap:round;stroke-linejoin:round;stroke-width:1.5px;fill:none"/>
        </g>
    </g>
</svg>
